<svg xmlns="http://www.w3.org/2000/svg" viewBox="0 0 800 800" width="800" height="800">
  <defs>
    <radialGradient id="bg3" cx="50%" cy="40%" r="55%">
      <stop offset="0%" stop-color="#C8A97E" stop-opacity="0.15"/>
      <stop offset="100%" stop-color="#0C0A08" stop-opacity="0"/>
    </radialGradient>
  </defs>
  <rect width="800" height="800" fill="#161410"/>
  <rect width="800" height="800" fill="url(#bg3)"/>
  <!-- Back-left bottle -->
  <rect x="185" y="240" width="155" height="340" rx="18" fill="#F5F0E8" opacity="0.6"/>
  <rect x="205" y="195" width="105" height="55" rx="8" fill="#E8E3DC" opacity="0.6"/>
  <rect x="197" y="167" width="120" height="35" rx="7" fill="#2A2520" opacity="0.7"/>
  <rect x="193" y="290" width="139" height="175" rx="7" fill="#7B35B8" opacity="0.5"/>
  <text x="262" y="380" font-family="serif" font-size="22" font-weight="bold" fill="#F5D98E" text-anchor="middle" opacity="0.7">Berinjela</text>
  <!-- Back-right bottle -->
  <rect x="460" y="240" width="155" height="340" rx="18" fill="#F5F0E8" opacity="0.6"/>
  <rect x="480" y="195" width="105" height="55" rx="8" fill="#E8E3DC" opacity="0.6"/>
  <rect x="472" y="167" width="120" height="35" rx="7" fill="#2A2520" opacity="0.7"/>
  <rect x="468" y="290" width="139" height="175" rx="7" fill="#7B35B8" opacity="0.5"/>
  <text x="537" y="380" font-family="serif" font-size="22" font-weight="bold" fill="#F5D98E" text-anchor="middle" opacity="0.7">Berinjela</text>
  <!-- Front center bottle -->
  <rect x="323" y="210" width="154" height="360" rx="18" fill="#F5F0E8" opacity="0.95"/>
  <rect x="343" y="163" width="114" height="57" rx="10" fill="#E8E3DC" opacity="0.95"/>
  <rect x="333" y="135" width="134" height="38" rx="8" fill="#2A2520"/>
  <rect x="331" y="260" width="138" height="195" rx="8" fill="#7B35B8" opacity="0.9"/>
  <rect x="331" y="260" width="138" height="195" rx="8" fill="url(#bg3)" opacity="0.25"/>
  <rect x="342" y="268" width="116" height="2" rx="1" fill="#C8A97E" opacity="0.7"/>
  <rect x="342" y="447" width="116" height="2" rx="1" fill="#C8A97E" opacity="0.7"/>
  <text x="400" y="325" font-family="serif" font-size="26" font-weight="bold" fill="#F5D98E" text-anchor="middle">Berinjela</text>
  <text x="400" y="355" font-family="sans-serif" font-size="12" fill="#F5F0E8" text-anchor="middle" opacity="0.85">30 cápsulas</text>
  <text x="400" y="378" font-family="sans-serif" font-size="10" fill="#F5F0E8" text-anchor="middle" opacity="0.7">Uso diário: 1 cápsula</text>
</svg>
